<?xml version="1.0" standalone="no"?>
<!DOCTYPE svg PUBLIC "-//W3C//DTD SVG 20010904//EN"
 "http://www.w3.org/TR/2001/REC-SVG-20010904/DTD/svg10.dtd">
<svg version="1.0" xmlns="http://www.w3.org/2000/svg"
 width="800.000000pt" height="800.000000pt" viewBox="0 0 800.000000 800.000000"
 preserveAspectRatio="xMidYMid meet">
<metadata>
Created by potrace 1.14, written by Peter Selinger 2001-2017
</metadata>
<g transform="translate(0.000000,800.000000) scale(0.100000,-0.100000)"
fill="#000000" stroke="none">
<path d="M1295 7984 c-201 -48 -370 -171 -470 -341 -39 -67 -55 -106 -93 -228
-3 -11 -7 -1542 -8 -3402 l-2 -3381 25 -88 c38 -137 94 -235 182 -322 70 -69
97 -92 110 -92 6 0 11 -4 11 -10 0 -5 6 -10 14 -10 8 0 16 -3 18 -7 4 -11 109
-57 178 -80 52 -17 178 -18 2730 -18 2568 0 2678 1 2740 18 183 52 344 174
439 332 44 72 88 203 97 286 9 85 11 6614 2 6704 -6 64 -53 233 -67 245 -4 3
-18 27 -31 53 -27 52 -139 175 -205 224 -50 37 -156 87 -232 110 -55 17 -212
18 -2718 20 -2284 1 -2668 -1 -2720 -13z"/>
</g>
</svg>
